<?xml version="1.0" standalone="no"?>
<!DOCTYPE svg PUBLIC "-//W3C//DTD SVG 20010904//EN"
 "http://www.w3.org/TR/2001/REC-SVG-20010904/DTD/svg10.dtd">
<svg version="1.0" xmlns="http://www.w3.org/2000/svg"
 width="393.000000pt" height="424.000000pt" viewBox="0 0 393.000000 424.000000"
 preserveAspectRatio="xMidYMid meet">

<g transform="translate(0.000000,424.000000) scale(0.100000,-0.100000)"
fill="#000000" stroke="none">
<path d="M0 2120 l0 -2120 1965 0 1965 0 0 2120 0 2120 -1965 0 -1965 0 0
-2120z m2007 648 l94 -51 -3 -121 -3 -120 -85 -48 c-47 -26 -92 -47 -100 -47
-8 0 -53 22 -100 47 l-85 47 -3 120 -3 120 73 40 c40 22 82 45 93 51 11 7 22
12 24 13 3 1 47 -22 98 -51z"/>
</g>
</svg>
